{
	"asset":{
		"generator":"Khronos glTF Blender I/O v4.5.47",
		"version":"2.0"
	},
	"scene":0,
	"scenes":[
		{
			"name":"Scene",
			"nodes":[
				0
			]
		}
	],
	"nodes":[
		{
			"mesh":0,
			"name":"Icosphere",
			"translation":[
				-0.4941907525062561,
				0.042657025158405304,
				0.07825689017772675
			]
		}
	],
	"materials":[
		{
			"doubleSided":true,
			"name":"Rock",
			"pbrMetallicRoughness":{
				"metallicFactor":0
			}
		}
	],
	"meshes":[
		{
			"name":"Icosphere",
			"primitives":[
				{
					"attributes":{
						"POSITION":0,
						"NORMAL":1,
						"TEXCOORD_0":2
					},
					"indices":3,
					"material":0
				}
			]
		}
	],
	"accessors":[
		{
			"bufferView":0,
			"componentType":5126,
			"count":2964,
			"max":[
				0.9118379354476929,
				0.8347773551940918,
				0.9790529608726501
			],
			"min":[
				-0.9968857765197754,
				-1,
				-0.9438406825065613
			],
			"type":"VEC3"
		},
		{
			"bufferView":1,
			"componentType":5126,
			"count":2964,
			"type":"VEC3"
		},
		{
			"bufferView":2,
			"componentType":5126,
			"count":2964,
			"type":"VEC2"
		},
		{
			"bufferView":3,
			"componentType":5123,
			"count":15360,
			"type":"SCALAR"
		}
	],
	"bufferViews":[
		{
			"buffer":0,
			"byteLength":35568,
			"byteOffset":0,
			"target":34962
		},
		{
			"buffer":0,
			"byteLength":35568,
			"byteOffset":35568,
			"target":34962
		},
		{
			"buffer":0,
			"byteLength":23712,
			"byteOffset":71136,
			"target":34962
		},
		{
			"buffer":0,
			"byteLength":30720,
			"byteOffset":94848,
			"target":34963
		}
	],
	"buffers":[
		{
			"byteLength":125568,
			"uri":"sphere.bin"
		}
	]
}
