{
	"asset":{
		"generator":"Khronos glTF Blender I/O v4.0.44",
		"version":"2.0"
	},
	"scene":0,
	"scenes":[
		{
			"name":"Scene",
			"nodes":[
				0,
				3
			]
		}
	],
	"nodes":[
		{
			"name":"moto_ref",
			"rotation":[
				0.7071068286895752,
				0,
				0,
				0.7071068286895752
			],
			"translation":[
				0.004536628723144531,
				0.07747852802276611,
				0.04159533977508545
			]
		},
		{
			"mesh":0,
			"name":"back_wheel",
			"rotation":[
				0,
				0,
				0.12867499887943268,
				0.9916868209838867
			],
			"translation":[
				-1.108398675918579,
				-0.46463751792907715,
				0
			]
		},
		{
			"mesh":1,
			"name":"front_wheel",
			"translation":[
				1.580625295639038,
				-0.46463751792907715,
				0
			]
		},
		{
			"children":[
				1,
				2
			],
			"mesh":2,
			"name":"body",
			"scale":[
				0.812635600566864,
				0.812635600566864,
				0.812635600566864
			],
			"translation":[
				0.04249914735555649,
				-0.01268187165260315,
				-0.006441017612814903
			]
		}
	],
	"meshes":[
		{
			"name":"Cube.005",
			"primitives":[
				{
					"attributes":{
						"POSITION":0,
						"NORMAL":1,
						"TEXCOORD_0":2
					},
					"indices":3
				}
			]
		},
		{
			"name":"Cube.003",
			"primitives":[
				{
					"attributes":{
						"POSITION":4,
						"NORMAL":5,
						"TEXCOORD_0":6
					},
					"indices":3
				}
			]
		},
		{
			"name":"Cube.001",
			"primitives":[
				{
					"attributes":{
						"POSITION":7,
						"NORMAL":8,
						"TEXCOORD_0":9
					},
					"indices":10
				}
			]
		}
	],
	"accessors":[
		{
			"bufferView":0,
			"componentType":5126,
			"count":659,
			"max":[
				0.5661638975143433,
				0.5661691427230835,
				0.13388848304748535
			],
			"min":[
				-0.5660964250564575,
				-0.5660912990570068,
				-0.13388848304748535
			],
			"type":"VEC3"
		},
		{
			"bufferView":1,
			"componentType":5126,
			"count":659,
			"type":"VEC3"
		},
		{
			"bufferView":2,
			"componentType":5126,
			"count":659,
			"type":"VEC2"
		},
		{
			"bufferView":3,
			"componentType":5123,
			"count":2676,
			"type":"SCALAR"
		},
		{
			"bufferView":4,
			"componentType":5126,
			"count":659,
			"max":[
				0.5661638975143433,
				0.5661691427230835,
				0.13388848304748535
			],
			"min":[
				-0.5660964250564575,
				-0.5660912990570068,
				-0.13388848304748535
			],
			"type":"VEC3"
		},
		{
			"bufferView":5,
			"componentType":5126,
			"count":659,
			"type":"VEC3"
		},
		{
			"bufferView":6,
			"componentType":5126,
			"count":659,
			"type":"VEC2"
		},
		{
			"bufferView":7,
			"componentType":5126,
			"count":5886,
			"max":[
				1.7393231391906738,
				0.9052123427391052,
				0.6961720585823059
			],
			"min":[
				-1.6875739097595215,
				-0.7325420379638672,
				-0.6961720585823059
			],
			"type":"VEC3"
		},
		{
			"bufferView":8,
			"componentType":5126,
			"count":5886,
			"type":"VEC3"
		},
		{
			"bufferView":9,
			"componentType":5126,
			"count":5886,
			"type":"VEC2"
		},
		{
			"bufferView":10,
			"componentType":5123,
			"count":9486,
			"type":"SCALAR"
		}
	],
	"bufferViews":[
		{
			"buffer":0,
			"byteLength":7908,
			"byteOffset":0,
			"target":34962
		},
		{
			"buffer":0,
			"byteLength":7908,
			"byteOffset":7908,
			"target":34962
		},
		{
			"buffer":0,
			"byteLength":5272,
			"byteOffset":15816,
			"target":34962
		},
		{
			"buffer":0,
			"byteLength":5352,
			"byteOffset":21088,
			"target":34963
		},
		{
			"buffer":0,
			"byteLength":7908,
			"byteOffset":26440,
			"target":34962
		},
		{
			"buffer":0,
			"byteLength":7908,
			"byteOffset":34348,
			"target":34962
		},
		{
			"buffer":0,
			"byteLength":5272,
			"byteOffset":42256,
			"target":34962
		},
		{
			"buffer":0,
			"byteLength":70632,
			"byteOffset":47528,
			"target":34962
		},
		{
			"buffer":0,
			"byteLength":70632,
			"byteOffset":118160,
			"target":34962
		},
		{
			"buffer":0,
			"byteLength":47088,
			"byteOffset":188792,
			"target":34962
		},
		{
			"buffer":0,
			"byteLength":18972,
			"byteOffset":235880,
			"target":34963
		}
	],
	"buffers":[
		{
			"byteLength":254852,
			"uri":"motocycle.bin"
		}
	]
}
