{
	"asset":{
		"generator":"Khronos glTF Blender I/O v4.5.49",
		"version":"2.0"
	},
	"scene":0,
	"scenes":[
		{
			"name":"Scene",
			"nodes":[
				22
			]
		}
	],
	"nodes":[
		{
			"name":"Head",
			"rotation":[
				-0.08853579312562943,
				2.0380515053375348e-08,
				-9.067592898759358e-09,
				0.9960730075836182
			],
			"scale":[
				1,
				1,
				1.0000001192092896
			],
			"translation":[
				-7.8040184161236965e-16,
				0.3584613800048828,
				5.122274160385132e-09
			]
		},
		{
			"name":"Hand.L",
			"rotation":[
				-0.03719576820731163,
				-0.00019999584765173495,
				-0.005372477695345879,
				0.9992935657501221
			],
			"scale":[
				1,
				1,
				0.9999999403953552
			],
			"translation":[
				1.192859855336792e-08,
				0.34982025623321533,
				-2.452026137689245e-09
			]
		},
		{
			"children":[
				1
			],
			"name":"LowerArm.L",
			"rotation":[
				0.0727098360657692,
				-5.905426547769821e-08,
				1.6325481411172404e-08,
				0.9973531365394592
			],
			"scale":[
				1,
				0.9999999403953552,
				0.9999999403953552
			],
			"translation":[
				-6.719989897874257e-09,
				0.3658785820007324,
				-2.3338770915870555e-09
			]
		},
		{
			"children":[
				2
			],
			"name":"UpperArm.L",
			"rotation":[
				-0.026247503235936165,
				-0.007070150226354599,
				0.1585950404405594,
				0.9869694709777832
			],
			"scale":[
				0.9999999403953552,
				1,
				1
			],
			"translation":[
				-8.82069315366607e-08,
				0.2743849754333496,
				1.3969838619232178e-09
			]
		},
		{
			"children":[
				3
			],
			"name":"Shoulder.L",
			"rotation":[
				-0.041107140481472015,
				-0.042329952120780945,
				-0.8092882633209229,
				0.5844407081604004
			],
			"scale":[
				1,
				0.9999998807907104,
				1
			],
			"translation":[
				0.06588544696569443,
				0.3074839115142822,
				-0.0011956918751820922
			]
		},
		{
			"name":"Hand.R",
			"rotation":[
				-0.03719576820731163,
				0.00019999576034024358,
				0.005372478626668453,
				0.9992935657501221
			],
			"scale":[
				1,
				1,
				0.9999999403953552
			],
			"translation":[
				1.0704909669811968e-07,
				0.34982025623321533,
				6.929127494004206e-09
			]
		},
		{
			"children":[
				5
			],
			"name":"LowerArm.R",
			"rotation":[
				0.07270984351634979,
				6.014828102252068e-08,
				-1.6372804223507842e-09,
				0.9973531365394592
			],
			"scale":[
				1,
				0.9999999403953552,
				0.9999999403953552
			],
			"translation":[
				2.2452644543591305e-07,
				0.36587855219841003,
				7.356106834777165e-10
			]
		},
		{
			"children":[
				6
			],
			"name":"UpperArm.R",
			"rotation":[
				-0.026247508823871613,
				0.007070149295032024,
				-0.1585950404405594,
				0.9869694709777832
			],
			"scale":[
				0.9999999403953552,
				0.9999999403953552,
				1
			],
			"translation":[
				8.075068791413287e-08,
				0.2743849456310272,
				4.656612873077393e-10
			]
		},
		{
			"children":[
				7
			],
			"name":"Shoulder.R",
			"rotation":[
				-0.041107211261987686,
				0.042329899966716766,
				0.8092882633209229,
				0.5844406485557556
			],
			"scale":[
				1,
				0.9999998807907104,
				1
			],
			"translation":[
				-0.06588544696569443,
				0.3074839115142822,
				-0.0011957063106819987
			]
		},
		{
			"children":[
				0,
				4,
				8
			],
			"name":"Spine02",
			"rotation":[
				0.14529633522033691,
				3.6857639162946043e-09,
				1.1366689811609376e-08,
				0.9893881678581238
			],
			"scale":[
				1,
				0.9999999403953552,
				0.9999999403953552
			],
			"translation":[
				0,
				0.32999029755592346,
				7.450580596923828e-09
			]
		},
		{
			"children":[
				9
			],
			"name":"Spine01",
			"rotation":[
				-0.202609583735466,
				3.8513117139871156e-09,
				-1.4298750627972368e-08,
				0.9792596101760864
			],
			"translation":[
				-1.7763568394002505e-15,
				0.13754963874816895,
				2.2351741790771484e-08
			]
		},
		{
			"name":"Foot.L",
			"rotation":[
				0.6471235156059265,
				-8.309572052667136e-08,
				-1.8403147805656772e-07,
				0.7623851895332336
			],
			"scale":[
				1,
				1,
				1.0000001192092896
			],
			"translation":[
				-3.6468534858613566e-09,
				0.4271312952041626,
				2.296967949177997e-09
			]
		},
		{
			"children":[
				11
			],
			"name":"LowerLeg.L",
			"rotation":[
				-0.14515501260757446,
				4.352988014488801e-08,
				3.775094370439547e-08,
				0.9894089102745056
			],
			"translation":[
				-3.2000881944327375e-09,
				0.39601632952690125,
				-1.3405184517978341e-08
			]
		},
		{
			"children":[
				12
			],
			"name":"UpperLeg.L",
			"rotation":[
				9.609107110009063e-08,
				0.1985875964164734,
				0.9800831079483032,
				3.866643538685821e-08
			],
			"scale":[
				1,
				0.9999998807907104,
				1
			],
			"translation":[
				0.18832731246948242,
				-0.03142179548740387,
				0.007652733009308577
			]
		},
		{
			"name":"Foot.R",
			"rotation":[
				0.6471236944198608,
				1.181128084226657e-07,
				1.4277739524004573e-07,
				0.7623850703239441
			],
			"translation":[
				1.3662744269282712e-09,
				0.4271313548088074,
				-1.9817569807401014e-10
			]
		},
		{
			"children":[
				14
			],
			"name":"LowerLeg.R",
			"rotation":[
				-0.14515504240989685,
				4.4855291037038114e-08,
				2.948825628124041e-09,
				0.9894089102745056
			],
			"scale":[
				1,
				1.0000001192092896,
				1
			],
			"translation":[
				-5.276953540800378e-09,
				0.3960162401199341,
				-8.749320379308756e-09
			]
		},
		{
			"children":[
				15
			],
			"name":"UpperLeg.R",
			"rotation":[
				-2.074398253171239e-08,
				0.19858750700950623,
				0.980083167552948,
				1.4992952657166825e-08
			],
			"scale":[
				1,
				0.9999998211860657,
				0.999999463558197
			],
			"translation":[
				-0.18832731246948242,
				-0.03142179548740387,
				0.007652709726244211
			]
		},
		{
			"children":[
				10,
				13,
				16
			],
			"name":"Pelvis",
			"rotation":[
				0.11916475743055344,
				3.3082599770750676e-08,
				3.97057275947077e-09,
				0.9928745031356812
			],
			"translation":[
				0,
				0.9562510848045349,
				-0.01452620979398489
			]
		},
		{
			"name":"IK_Target.L",
			"rotation":[
				-0.7071067690849304,
				0,
				0,
				0.7071067690849304
			],
			"scale":[
				1,
				0.9999999403953552,
				1
			],
			"translation":[
				0.18832731246948242,
				0.10950730741024017,
				-0.006609364878386259
			]
		},
		{
			"name":"IK_Pole.L",
			"rotation":[
				0,
				0.7071067690849304,
				0.7071067690849304,
				0
			],
			"translation":[
				0.18832731246948242,
				0.5321236848831177,
				0.7245187759399414
			]
		},
		{
			"name":"IK_Target.R",
			"rotation":[
				-0.7071067690849304,
				0,
				0,
				0.7071067690849304
			],
			"scale":[
				1,
				0.9999999403953552,
				1
			],
			"translation":[
				-0.18832731246948242,
				0.10950730741024017,
				-0.006609364878386259
			]
		},
		{
			"name":"IK_Pole.R",
			"rotation":[
				0,
				0.7071067690849304,
				0.7071067690849304,
				0
			],
			"translation":[
				-0.18832731246948242,
				0.5321236848831177,
				0.7245187759399414
			]
		},
		{
			"children":[
				17,
				18,
				19,
				20,
				21
			],
			"name":"Armature"
		}
	],
	"animations":[
		{
			"channels":[
				{
					"sampler":0,
					"target":{
						"node":17,
						"path":"translation"
					}
				},
				{
					"sampler":1,
					"target":{
						"node":17,
						"path":"rotation"
					}
				},
				{
					"sampler":2,
					"target":{
						"node":17,
						"path":"scale"
					}
				},
				{
					"sampler":3,
					"target":{
						"node":10,
						"path":"translation"
					}
				},
				{
					"sampler":4,
					"target":{
						"node":10,
						"path":"rotation"
					}
				},
				{
					"sampler":5,
					"target":{
						"node":10,
						"path":"scale"
					}
				},
				{
					"sampler":6,
					"target":{
						"node":9,
						"path":"translation"
					}
				},
				{
					"sampler":7,
					"target":{
						"node":9,
						"path":"rotation"
					}
				},
				{
					"sampler":8,
					"target":{
						"node":9,
						"path":"scale"
					}
				},
				{
					"sampler":9,
					"target":{
						"node":0,
						"path":"translation"
					}
				},
				{
					"sampler":10,
					"target":{
						"node":0,
						"path":"rotation"
					}
				},
				{
					"sampler":11,
					"target":{
						"node":0,
						"path":"scale"
					}
				},
				{
					"sampler":12,
					"target":{
						"node":4,
						"path":"translation"
					}
				},
				{
					"sampler":13,
					"target":{
						"node":4,
						"path":"rotation"
					}
				},
				{
					"sampler":14,
					"target":{
						"node":4,
						"path":"scale"
					}
				},
				{
					"sampler":15,
					"target":{
						"node":3,
						"path":"translation"
					}
				},
				{
					"sampler":16,
					"target":{
						"node":3,
						"path":"rotation"
					}
				},
				{
					"sampler":17,
					"target":{
						"node":3,
						"path":"scale"
					}
				},
				{
					"sampler":18,
					"target":{
						"node":2,
						"path":"translation"
					}
				},
				{
					"sampler":19,
					"target":{
						"node":2,
						"path":"rotation"
					}
				},
				{
					"sampler":20,
					"target":{
						"node":2,
						"path":"scale"
					}
				},
				{
					"sampler":21,
					"target":{
						"node":1,
						"path":"translation"
					}
				},
				{
					"sampler":22,
					"target":{
						"node":1,
						"path":"rotation"
					}
				},
				{
					"sampler":23,
					"target":{
						"node":1,
						"path":"scale"
					}
				},
				{
					"sampler":24,
					"target":{
						"node":8,
						"path":"translation"
					}
				},
				{
					"sampler":25,
					"target":{
						"node":8,
						"path":"rotation"
					}
				},
				{
					"sampler":26,
					"target":{
						"node":8,
						"path":"scale"
					}
				},
				{
					"sampler":27,
					"target":{
						"node":7,
						"path":"translation"
					}
				},
				{
					"sampler":28,
					"target":{
						"node":7,
						"path":"rotation"
					}
				},
				{
					"sampler":29,
					"target":{
						"node":7,
						"path":"scale"
					}
				},
				{
					"sampler":30,
					"target":{
						"node":6,
						"path":"translation"
					}
				},
				{
					"sampler":31,
					"target":{
						"node":6,
						"path":"rotation"
					}
				},
				{
					"sampler":32,
					"target":{
						"node":6,
						"path":"scale"
					}
				},
				{
					"sampler":33,
					"target":{
						"node":5,
						"path":"translation"
					}
				},
				{
					"sampler":34,
					"target":{
						"node":5,
						"path":"rotation"
					}
				},
				{
					"sampler":35,
					"target":{
						"node":5,
						"path":"scale"
					}
				},
				{
					"sampler":36,
					"target":{
						"node":13,
						"path":"translation"
					}
				},
				{
					"sampler":37,
					"target":{
						"node":13,
						"path":"rotation"
					}
				},
				{
					"sampler":38,
					"target":{
						"node":13,
						"path":"scale"
					}
				},
				{
					"sampler":39,
					"target":{
						"node":12,
						"path":"translation"
					}
				},
				{
					"sampler":40,
					"target":{
						"node":12,
						"path":"rotation"
					}
				},
				{
					"sampler":41,
					"target":{
						"node":12,
						"path":"scale"
					}
				},
				{
					"sampler":42,
					"target":{
						"node":11,
						"path":"translation"
					}
				},
				{
					"sampler":43,
					"target":{
						"node":11,
						"path":"rotation"
					}
				},
				{
					"sampler":44,
					"target":{
						"node":11,
						"path":"scale"
					}
				},
				{
					"sampler":45,
					"target":{
						"node":16,
						"path":"translation"
					}
				},
				{
					"sampler":46,
					"target":{
						"node":16,
						"path":"rotation"
					}
				},
				{
					"sampler":47,
					"target":{
						"node":16,
						"path":"scale"
					}
				},
				{
					"sampler":48,
					"target":{
						"node":15,
						"path":"translation"
					}
				},
				{
					"sampler":49,
					"target":{
						"node":15,
						"path":"rotation"
					}
				},
				{
					"sampler":50,
					"target":{
						"node":15,
						"path":"scale"
					}
				},
				{
					"sampler":51,
					"target":{
						"node":14,
						"path":"translation"
					}
				},
				{
					"sampler":52,
					"target":{
						"node":14,
						"path":"rotation"
					}
				},
				{
					"sampler":53,
					"target":{
						"node":14,
						"path":"scale"
					}
				},
				{
					"sampler":54,
					"target":{
						"node":18,
						"path":"translation"
					}
				},
				{
					"sampler":55,
					"target":{
						"node":18,
						"path":"rotation"
					}
				},
				{
					"sampler":56,
					"target":{
						"node":18,
						"path":"scale"
					}
				},
				{
					"sampler":57,
					"target":{
						"node":19,
						"path":"translation"
					}
				},
				{
					"sampler":58,
					"target":{
						"node":19,
						"path":"rotation"
					}
				},
				{
					"sampler":59,
					"target":{
						"node":19,
						"path":"scale"
					}
				},
				{
					"sampler":60,
					"target":{
						"node":20,
						"path":"translation"
					}
				},
				{
					"sampler":61,
					"target":{
						"node":20,
						"path":"rotation"
					}
				},
				{
					"sampler":62,
					"target":{
						"node":20,
						"path":"scale"
					}
				},
				{
					"sampler":63,
					"target":{
						"node":21,
						"path":"translation"
					}
				},
				{
					"sampler":64,
					"target":{
						"node":21,
						"path":"rotation"
					}
				},
				{
					"sampler":65,
					"target":{
						"node":21,
						"path":"scale"
					}
				}
			],
			"name":"_TPose",
			"samplers":[
				{
					"input":0,
					"interpolation":"LINEAR",
					"output":1
				},
				{
					"input":0,
					"interpolation":"LINEAR",
					"output":2
				},
				{
					"input":0,
					"interpolation":"LINEAR",
					"output":3
				},
				{
					"input":0,
					"interpolation":"LINEAR",
					"output":4
				},
				{
					"input":0,
					"interpolation":"LINEAR",
					"output":5
				},
				{
					"input":0,
					"interpolation":"LINEAR",
					"output":3
				},
				{
					"input":0,
					"interpolation":"LINEAR",
					"output":6
				},
				{
					"input":0,
					"interpolation":"LINEAR",
					"output":7
				},
				{
					"input":0,
					"interpolation":"LINEAR",
					"output":8
				},
				{
					"input":0,
					"interpolation":"LINEAR",
					"output":9
				},
				{
					"input":0,
					"interpolation":"LINEAR",
					"output":10
				},
				{
					"input":0,
					"interpolation":"LINEAR",
					"output":3
				},
				{
					"input":0,
					"interpolation":"LINEAR",
					"output":11
				},
				{
					"input":0,
					"interpolation":"LINEAR",
					"output":12
				},
				{
					"input":0,
					"interpolation":"LINEAR",
					"output":13
				},
				{
					"input":0,
					"interpolation":"LINEAR",
					"output":14
				},
				{
					"input":0,
					"interpolation":"LINEAR",
					"output":15
				},
				{
					"input":0,
					"interpolation":"LINEAR",
					"output":16
				},
				{
					"input":0,
					"interpolation":"LINEAR",
					"output":17
				},
				{
					"input":0,
					"interpolation":"LINEAR",
					"output":18
				},
				{
					"input":0,
					"interpolation":"LINEAR",
					"output":19
				},
				{
					"input":0,
					"interpolation":"LINEAR",
					"output":20
				},
				{
					"input":0,
					"interpolation":"LINEAR",
					"output":21
				},
				{
					"input":0,
					"interpolation":"LINEAR",
					"output":22
				},
				{
					"input":0,
					"interpolation":"LINEAR",
					"output":23
				},
				{
					"input":0,
					"interpolation":"LINEAR",
					"output":24
				},
				{
					"input":0,
					"interpolation":"LINEAR",
					"output":25
				},
				{
					"input":0,
					"interpolation":"LINEAR",
					"output":26
				},
				{
					"input":0,
					"interpolation":"LINEAR",
					"output":27
				},
				{
					"input":0,
					"interpolation":"LINEAR",
					"output":28
				},
				{
					"input":0,
					"interpolation":"LINEAR",
					"output":29
				},
				{
					"input":0,
					"interpolation":"LINEAR",
					"output":30
				},
				{
					"input":0,
					"interpolation":"LINEAR",
					"output":3
				},
				{
					"input":0,
					"interpolation":"LINEAR",
					"output":31
				},
				{
					"input":0,
					"interpolation":"LINEAR",
					"output":32
				},
				{
					"input":0,
					"interpolation":"LINEAR",
					"output":22
				},
				{
					"input":0,
					"interpolation":"LINEAR",
					"output":33
				},
				{
					"input":0,
					"interpolation":"LINEAR",
					"output":34
				},
				{
					"input":0,
					"interpolation":"LINEAR",
					"output":35
				},
				{
					"input":0,
					"interpolation":"LINEAR",
					"output":36
				},
				{
					"input":0,
					"interpolation":"LINEAR",
					"output":37
				},
				{
					"input":0,
					"interpolation":"LINEAR",
					"output":38
				},
				{
					"input":0,
					"interpolation":"LINEAR",
					"output":39
				},
				{
					"input":0,
					"interpolation":"LINEAR",
					"output":40
				},
				{
					"input":0,
					"interpolation":"LINEAR",
					"output":41
				},
				{
					"input":0,
					"interpolation":"LINEAR",
					"output":42
				},
				{
					"input":0,
					"interpolation":"LINEAR",
					"output":43
				},
				{
					"input":0,
					"interpolation":"LINEAR",
					"output":44
				},
				{
					"input":0,
					"interpolation":"LINEAR",
					"output":45
				},
				{
					"input":0,
					"interpolation":"LINEAR",
					"output":46
				},
				{
					"input":0,
					"interpolation":"LINEAR",
					"output":47
				},
				{
					"input":0,
					"interpolation":"LINEAR",
					"output":48
				},
				{
					"input":0,
					"interpolation":"LINEAR",
					"output":49
				},
				{
					"input":0,
					"interpolation":"LINEAR",
					"output":50
				},
				{
					"input":0,
					"interpolation":"LINEAR",
					"output":51
				},
				{
					"input":0,
					"interpolation":"LINEAR",
					"output":52
				},
				{
					"input":0,
					"interpolation":"LINEAR",
					"output":53
				},
				{
					"input":0,
					"interpolation":"LINEAR",
					"output":54
				},
				{
					"input":0,
					"interpolation":"LINEAR",
					"output":55
				},
				{
					"input":0,
					"interpolation":"LINEAR",
					"output":3
				},
				{
					"input":0,
					"interpolation":"LINEAR",
					"output":56
				},
				{
					"input":0,
					"interpolation":"LINEAR",
					"output":52
				},
				{
					"input":0,
					"interpolation":"LINEAR",
					"output":53
				},
				{
					"input":0,
					"interpolation":"LINEAR",
					"output":57
				},
				{
					"input":0,
					"interpolation":"LINEAR",
					"output":55
				},
				{
					"input":0,
					"interpolation":"LINEAR",
					"output":3
				}
			]
		},
		{
			"channels":[
				{
					"sampler":0,
					"target":{
						"node":17,
						"path":"translation"
					}
				},
				{
					"sampler":1,
					"target":{
						"node":17,
						"path":"rotation"
					}
				},
				{
					"sampler":2,
					"target":{
						"node":17,
						"path":"scale"
					}
				},
				{
					"sampler":3,
					"target":{
						"node":10,
						"path":"translation"
					}
				},
				{
					"sampler":4,
					"target":{
						"node":10,
						"path":"rotation"
					}
				},
				{
					"sampler":5,
					"target":{
						"node":10,
						"path":"scale"
					}
				},
				{
					"sampler":6,
					"target":{
						"node":9,
						"path":"translation"
					}
				},
				{
					"sampler":7,
					"target":{
						"node":9,
						"path":"rotation"
					}
				},
				{
					"sampler":8,
					"target":{
						"node":9,
						"path":"scale"
					}
				},
				{
					"sampler":9,
					"target":{
						"node":0,
						"path":"translation"
					}
				},
				{
					"sampler":10,
					"target":{
						"node":0,
						"path":"rotation"
					}
				},
				{
					"sampler":11,
					"target":{
						"node":0,
						"path":"scale"
					}
				},
				{
					"sampler":12,
					"target":{
						"node":4,
						"path":"translation"
					}
				},
				{
					"sampler":13,
					"target":{
						"node":4,
						"path":"rotation"
					}
				},
				{
					"sampler":14,
					"target":{
						"node":4,
						"path":"scale"
					}
				},
				{
					"sampler":15,
					"target":{
						"node":3,
						"path":"translation"
					}
				},
				{
					"sampler":16,
					"target":{
						"node":3,
						"path":"rotation"
					}
				},
				{
					"sampler":17,
					"target":{
						"node":3,
						"path":"scale"
					}
				},
				{
					"sampler":18,
					"target":{
						"node":2,
						"path":"translation"
					}
				},
				{
					"sampler":19,
					"target":{
						"node":2,
						"path":"rotation"
					}
				},
				{
					"sampler":20,
					"target":{
						"node":2,
						"path":"scale"
					}
				},
				{
					"sampler":21,
					"target":{
						"node":1,
						"path":"translation"
					}
				},
				{
					"sampler":22,
					"target":{
						"node":1,
						"path":"rotation"
					}
				},
				{
					"sampler":23,
					"target":{
						"node":1,
						"path":"scale"
					}
				},
				{
					"sampler":24,
					"target":{
						"node":8,
						"path":"translation"
					}
				},
				{
					"sampler":25,
					"target":{
						"node":8,
						"path":"rotation"
					}
				},
				{
					"sampler":26,
					"target":{
						"node":8,
						"path":"scale"
					}
				},
				{
					"sampler":27,
					"target":{
						"node":7,
						"path":"translation"
					}
				},
				{
					"sampler":28,
					"target":{
						"node":7,
						"path":"rotation"
					}
				},
				{
					"sampler":29,
					"target":{
						"node":7,
						"path":"scale"
					}
				},
				{
					"sampler":30,
					"target":{
						"node":6,
						"path":"translation"
					}
				},
				{
					"sampler":31,
					"target":{
						"node":6,
						"path":"rotation"
					}
				},
				{
					"sampler":32,
					"target":{
						"node":6,
						"path":"scale"
					}
				},
				{
					"sampler":33,
					"target":{
						"node":5,
						"path":"translation"
					}
				},
				{
					"sampler":34,
					"target":{
						"node":5,
						"path":"rotation"
					}
				},
				{
					"sampler":35,
					"target":{
						"node":5,
						"path":"scale"
					}
				},
				{
					"sampler":36,
					"target":{
						"node":13,
						"path":"translation"
					}
				},
				{
					"sampler":37,
					"target":{
						"node":13,
						"path":"rotation"
					}
				},
				{
					"sampler":38,
					"target":{
						"node":13,
						"path":"scale"
					}
				},
				{
					"sampler":39,
					"target":{
						"node":12,
						"path":"translation"
					}
				},
				{
					"sampler":40,
					"target":{
						"node":12,
						"path":"rotation"
					}
				},
				{
					"sampler":41,
					"target":{
						"node":12,
						"path":"scale"
					}
				},
				{
					"sampler":42,
					"target":{
						"node":11,
						"path":"translation"
					}
				},
				{
					"sampler":43,
					"target":{
						"node":11,
						"path":"rotation"
					}
				},
				{
					"sampler":44,
					"target":{
						"node":11,
						"path":"scale"
					}
				},
				{
					"sampler":45,
					"target":{
						"node":16,
						"path":"translation"
					}
				},
				{
					"sampler":46,
					"target":{
						"node":16,
						"path":"rotation"
					}
				},
				{
					"sampler":47,
					"target":{
						"node":16,
						"path":"scale"
					}
				},
				{
					"sampler":48,
					"target":{
						"node":15,
						"path":"translation"
					}
				},
				{
					"sampler":49,
					"target":{
						"node":15,
						"path":"rotation"
					}
				},
				{
					"sampler":50,
					"target":{
						"node":15,
						"path":"scale"
					}
				},
				{
					"sampler":51,
					"target":{
						"node":14,
						"path":"translation"
					}
				},
				{
					"sampler":52,
					"target":{
						"node":14,
						"path":"rotation"
					}
				},
				{
					"sampler":53,
					"target":{
						"node":14,
						"path":"scale"
					}
				},
				{
					"sampler":54,
					"target":{
						"node":18,
						"path":"translation"
					}
				},
				{
					"sampler":55,
					"target":{
						"node":18,
						"path":"rotation"
					}
				},
				{
					"sampler":56,
					"target":{
						"node":18,
						"path":"scale"
					}
				},
				{
					"sampler":57,
					"target":{
						"node":19,
						"path":"translation"
					}
				},
				{
					"sampler":58,
					"target":{
						"node":19,
						"path":"rotation"
					}
				},
				{
					"sampler":59,
					"target":{
						"node":19,
						"path":"scale"
					}
				},
				{
					"sampler":60,
					"target":{
						"node":20,
						"path":"translation"
					}
				},
				{
					"sampler":61,
					"target":{
						"node":20,
						"path":"rotation"
					}
				},
				{
					"sampler":62,
					"target":{
						"node":20,
						"path":"scale"
					}
				},
				{
					"sampler":63,
					"target":{
						"node":21,
						"path":"translation"
					}
				},
				{
					"sampler":64,
					"target":{
						"node":21,
						"path":"rotation"
					}
				},
				{
					"sampler":65,
					"target":{
						"node":21,
						"path":"scale"
					}
				}
			],
			"name":"Idle",
			"samplers":[
				{
					"input":58,
					"interpolation":"LINEAR",
					"output":59
				},
				{
					"input":60,
					"interpolation":"STEP",
					"output":61
				},
				{
					"input":60,
					"interpolation":"STEP",
					"output":62
				},
				{
					"input":60,
					"interpolation":"STEP",
					"output":63
				},
				{
					"input":60,
					"interpolation":"STEP",
					"output":64
				},
				{
					"input":60,
					"interpolation":"STEP",
					"output":62
				},
				{
					"input":60,
					"interpolation":"STEP",
					"output":65
				},
				{
					"input":60,
					"interpolation":"STEP",
					"output":66
				},
				{
					"input":60,
					"interpolation":"STEP",
					"output":67
				},
				{
					"input":60,
					"interpolation":"STEP",
					"output":68
				},
				{
					"input":60,
					"interpolation":"STEP",
					"output":69
				},
				{
					"input":60,
					"interpolation":"STEP",
					"output":62
				},
				{
					"input":60,
					"interpolation":"STEP",
					"output":70
				},
				{
					"input":58,
					"interpolation":"LINEAR",
					"output":71
				},
				{
					"input":60,
					"interpolation":"STEP",
					"output":72
				},
				{
					"input":60,
					"interpolation":"STEP",
					"output":73
				},
				{
					"input":60,
					"interpolation":"STEP",
					"output":74
				},
				{
					"input":60,
					"interpolation":"STEP",
					"output":75
				},
				{
					"input":60,
					"interpolation":"STEP",
					"output":76
				},
				{
					"input":60,
					"interpolation":"STEP",
					"output":77
				},
				{
					"input":60,
					"interpolation":"STEP",
					"output":78
				},
				{
					"input":60,
					"interpolation":"STEP",
					"output":79
				},
				{
					"input":60,
					"interpolation":"STEP",
					"output":80
				},
				{
					"input":60,
					"interpolation":"STEP",
					"output":81
				},
				{
					"input":60,
					"interpolation":"STEP",
					"output":82
				},
				{
					"input":58,
					"interpolation":"LINEAR",
					"output":83
				},
				{
					"input":60,
					"interpolation":"STEP",
					"output":84
				},
				{
					"input":60,
					"interpolation":"STEP",
					"output":85
				},
				{
					"input":58,
					"interpolation":"LINEAR",
					"output":86
				},
				{
					"input":60,
					"interpolation":"STEP",
					"output":87
				},
				{
					"input":60,
					"interpolation":"STEP",
					"output":88
				},
				{
					"input":60,
					"interpolation":"STEP",
					"output":89
				},
				{
					"input":60,
					"interpolation":"STEP",
					"output":78
				},
				{
					"input":60,
					"interpolation":"STEP",
					"output":90
				},
				{
					"input":60,
					"interpolation":"STEP",
					"output":91
				},
				{
					"input":60,
					"interpolation":"STEP",
					"output":78
				},
				{
					"input":60,
					"interpolation":"STEP",
					"output":92
				},
				{
					"input":58,
					"interpolation":"LINEAR",
					"output":93
				},
				{
					"input":60,
					"interpolation":"STEP",
					"output":94
				},
				{
					"input":60,
					"interpolation":"STEP",
					"output":95
				},
				{
					"input":58,
					"interpolation":"LINEAR",
					"output":96
				},
				{
					"input":60,
					"interpolation":"STEP",
					"output":97
				},
				{
					"input":60,
					"interpolation":"STEP",
					"output":98
				},
				{
					"input":58,
					"interpolation":"LINEAR",
					"output":99
				},
				{
					"input":60,
					"interpolation":"STEP",
					"output":100
				},
				{
					"input":60,
					"interpolation":"STEP",
					"output":101
				},
				{
					"input":58,
					"interpolation":"LINEAR",
					"output":102
				},
				{
					"input":60,
					"interpolation":"STEP",
					"output":103
				},
				{
					"input":60,
					"interpolation":"STEP",
					"output":104
				},
				{
					"input":58,
					"interpolation":"LINEAR",
					"output":105
				},
				{
					"input":60,
					"interpolation":"STEP",
					"output":106
				},
				{
					"input":60,
					"interpolation":"STEP",
					"output":107
				},
				{
					"input":58,
					"interpolation":"LINEAR",
					"output":108
				},
				{
					"input":60,
					"interpolation":"STEP",
					"output":109
				},
				{
					"input":60,
					"interpolation":"STEP",
					"output":110
				},
				{
					"input":60,
					"interpolation":"STEP",
					"output":111
				},
				{
					"input":60,
					"interpolation":"STEP",
					"output":112
				},
				{
					"input":60,
					"interpolation":"STEP",
					"output":113
				},
				{
					"input":60,
					"interpolation":"STEP",
					"output":114
				},
				{
					"input":60,
					"interpolation":"STEP",
					"output":62
				},
				{
					"input":60,
					"interpolation":"STEP",
					"output":115
				},
				{
					"input":60,
					"interpolation":"STEP",
					"output":116
				},
				{
					"input":60,
					"interpolation":"STEP",
					"output":117
				},
				{
					"input":60,
					"interpolation":"STEP",
					"output":118
				},
				{
					"input":60,
					"interpolation":"STEP",
					"output":114
				},
				{
					"input":60,
					"interpolation":"STEP",
					"output":62
				}
			]
		}
	],
	"skins":[
		{
			"inverseBindMatrices":119,
			"joints":[
				17,
				10,
				9,
				0,
				4,
				3,
				2,
				1,
				8,
				7,
				6,
				5,
				13,
				12,
				11,
				16,
				15,
				14,
				18,
				19,
				20,
				21
			],
			"name":"Armature"
		}
	],
	"accessors":[
		{
			"bufferView":0,
			"componentType":5126,
			"count":1,
			"max":[
				0.041666666666666664
			],
			"min":[
				0.041666666666666664
			],
			"type":"SCALAR"
		},
		{
			"bufferView":1,
			"componentType":5126,
			"count":1,
			"type":"VEC3"
		},
		{
			"bufferView":2,
			"componentType":5126,
			"count":1,
			"type":"VEC4"
		},
		{
			"bufferView":3,
			"componentType":5126,
			"count":1,
			"type":"VEC3"
		},
		{
			"bufferView":4,
			"componentType":5126,
			"count":1,
			"type":"VEC3"
		},
		{
			"bufferView":5,
			"componentType":5126,
			"count":1,
			"type":"VEC4"
		},
		{
			"bufferView":6,
			"componentType":5126,
			"count":1,
			"type":"VEC3"
		},
		{
			"bufferView":7,
			"componentType":5126,
			"count":1,
			"type":"VEC4"
		},
		{
			"bufferView":8,
			"componentType":5126,
			"count":1,
			"type":"VEC3"
		},
		{
			"bufferView":9,
			"componentType":5126,
			"count":1,
			"type":"VEC3"
		},
		{
			"bufferView":10,
			"componentType":5126,
			"count":1,
			"type":"VEC4"
		},
		{
			"bufferView":11,
			"componentType":5126,
			"count":1,
			"type":"VEC3"
		},
		{
			"bufferView":12,
			"componentType":5126,
			"count":1,
			"type":"VEC4"
		},
		{
			"bufferView":13,
			"componentType":5126,
			"count":1,
			"type":"VEC3"
		},
		{
			"bufferView":14,
			"componentType":5126,
			"count":1,
			"type":"VEC3"
		},
		{
			"bufferView":15,
			"componentType":5126,
			"count":1,
			"type":"VEC4"
		},
		{
			"bufferView":16,
			"componentType":5126,
			"count":1,
			"type":"VEC3"
		},
		{
			"bufferView":17,
			"componentType":5126,
			"count":1,
			"type":"VEC3"
		},
		{
			"bufferView":18,
			"componentType":5126,
			"count":1,
			"type":"VEC4"
		},
		{
			"bufferView":19,
			"componentType":5126,
			"count":1,
			"type":"VEC3"
		},
		{
			"bufferView":20,
			"componentType":5126,
			"count":1,
			"type":"VEC3"
		},
		{
			"bufferView":21,
			"componentType":5126,
			"count":1,
			"type":"VEC4"
		},
		{
			"bufferView":22,
			"componentType":5126,
			"count":1,
			"type":"VEC3"
		},
		{
			"bufferView":23,
			"componentType":5126,
			"count":1,
			"type":"VEC3"
		},
		{
			"bufferView":24,
			"componentType":5126,
			"count":1,
			"type":"VEC4"
		},
		{
			"bufferView":25,
			"componentType":5126,
			"count":1,
			"type":"VEC3"
		},
		{
			"bufferView":26,
			"componentType":5126,
			"count":1,
			"type":"VEC3"
		},
		{
			"bufferView":27,
			"componentType":5126,
			"count":1,
			"type":"VEC4"
		},
		{
			"bufferView":28,
			"componentType":5126,
			"count":1,
			"type":"VEC3"
		},
		{
			"bufferView":29,
			"componentType":5126,
			"count":1,
			"type":"VEC3"
		},
		{
			"bufferView":30,
			"componentType":5126,
			"count":1,
			"type":"VEC4"
		},
		{
			"bufferView":31,
			"componentType":5126,
			"count":1,
			"type":"VEC3"
		},
		{
			"bufferView":32,
			"componentType":5126,
			"count":1,
			"type":"VEC4"
		},
		{
			"bufferView":33,
			"componentType":5126,
			"count":1,
			"type":"VEC3"
		},
		{
			"bufferView":34,
			"componentType":5126,
			"count":1,
			"type":"VEC4"
		},
		{
			"bufferView":35,
			"componentType":5126,
			"count":1,
			"type":"VEC3"
		},
		{
			"bufferView":36,
			"componentType":5126,
			"count":1,
			"type":"VEC3"
		},
		{
			"bufferView":37,
			"componentType":5126,
			"count":1,
			"type":"VEC4"
		},
		{
			"bufferView":38,
			"componentType":5126,
			"count":1,
			"type":"VEC3"
		},
		{
			"bufferView":39,
			"componentType":5126,
			"count":1,
			"type":"VEC3"
		},
		{
			"bufferView":40,
			"componentType":5126,
			"count":1,
			"type":"VEC4"
		},
		{
			"bufferView":41,
			"componentType":5126,
			"count":1,
			"type":"VEC3"
		},
		{
			"bufferView":42,
			"componentType":5126,
			"count":1,
			"type":"VEC3"
		},
		{
			"bufferView":43,
			"componentType":5126,
			"count":1,
			"type":"VEC4"
		},
		{
			"bufferView":44,
			"componentType":5126,
			"count":1,
			"type":"VEC3"
		},
		{
			"bufferView":45,
			"componentType":5126,
			"count":1,
			"type":"VEC3"
		},
		{
			"bufferView":46,
			"componentType":5126,
			"count":1,
			"type":"VEC4"
		},
		{
			"bufferView":47,
			"componentType":5126,
			"count":1,
			"type":"VEC3"
		},
		{
			"bufferView":48,
			"componentType":5126,
			"count":1,
			"type":"VEC3"
		},
		{
			"bufferView":49,
			"componentType":5126,
			"count":1,
			"type":"VEC4"
		},
		{
			"bufferView":50,
			"componentType":5126,
			"count":1,
			"type":"VEC3"
		},
		{
			"bufferView":51,
			"componentType":5126,
			"count":1,
			"type":"VEC3"
		},
		{
			"bufferView":52,
			"componentType":5126,
			"count":1,
			"type":"VEC4"
		},
		{
			"bufferView":53,
			"componentType":5126,
			"count":1,
			"type":"VEC3"
		},
		{
			"bufferView":54,
			"componentType":5126,
			"count":1,
			"type":"VEC3"
		},
		{
			"bufferView":55,
			"componentType":5126,
			"count":1,
			"type":"VEC4"
		},
		{
			"bufferView":56,
			"componentType":5126,
			"count":1,
			"type":"VEC3"
		},
		{
			"bufferView":57,
			"componentType":5126,
			"count":1,
			"type":"VEC3"
		},
		{
			"bufferView":58,
			"componentType":5126,
			"count":40,
			"max":[
				1.6666666666666667
			],
			"min":[
				0.041666666666666664
			],
			"type":"SCALAR"
		},
		{
			"bufferView":59,
			"componentType":5126,
			"count":40,
			"type":"VEC3"
		},
		{
			"bufferView":60,
			"componentType":5126,
			"count":2,
			"max":[
				1.6666666666666667
			],
			"min":[
				0.041666666666666664
			],
			"type":"SCALAR"
		},
		{
			"bufferView":61,
			"componentType":5126,
			"count":2,
			"type":"VEC4"
		},
		{
			"bufferView":62,
			"componentType":5126,
			"count":2,
			"type":"VEC3"
		},
		{
			"bufferView":63,
			"componentType":5126,
			"count":2,
			"type":"VEC3"
		},
		{
			"bufferView":64,
			"componentType":5126,
			"count":2,
			"type":"VEC4"
		},
		{
			"bufferView":65,
			"componentType":5126,
			"count":2,
			"type":"VEC3"
		},
		{
			"bufferView":66,
			"componentType":5126,
			"count":2,
			"type":"VEC4"
		},
		{
			"bufferView":67,
			"componentType":5126,
			"count":2,
			"type":"VEC3"
		},
		{
			"bufferView":68,
			"componentType":5126,
			"count":2,
			"type":"VEC3"
		},
		{
			"bufferView":69,
			"componentType":5126,
			"count":2,
			"type":"VEC4"
		},
		{
			"bufferView":70,
			"componentType":5126,
			"count":2,
			"type":"VEC3"
		},
		{
			"bufferView":71,
			"componentType":5126,
			"count":40,
			"type":"VEC4"
		},
		{
			"bufferView":72,
			"componentType":5126,
			"count":2,
			"type":"VEC3"
		},
		{
			"bufferView":73,
			"componentType":5126,
			"count":2,
			"type":"VEC3"
		},
		{
			"bufferView":74,
			"componentType":5126,
			"count":2,
			"type":"VEC4"
		},
		{
			"bufferView":75,
			"componentType":5126,
			"count":2,
			"type":"VEC3"
		},
		{
			"bufferView":76,
			"componentType":5126,
			"count":2,
			"type":"VEC3"
		},
		{
			"bufferView":77,
			"componentType":5126,
			"count":2,
			"type":"VEC4"
		},
		{
			"bufferView":78,
			"componentType":5126,
			"count":2,
			"type":"VEC3"
		},
		{
			"bufferView":79,
			"componentType":5126,
			"count":2,
			"type":"VEC3"
		},
		{
			"bufferView":80,
			"componentType":5126,
			"count":2,
			"type":"VEC4"
		},
		{
			"bufferView":81,
			"componentType":5126,
			"count":2,
			"type":"VEC3"
		},
		{
			"bufferView":82,
			"componentType":5126,
			"count":2,
			"type":"VEC3"
		},
		{
			"bufferView":83,
			"componentType":5126,
			"count":40,
			"type":"VEC4"
		},
		{
			"bufferView":84,
			"componentType":5126,
			"count":2,
			"type":"VEC3"
		},
		{
			"bufferView":85,
			"componentType":5126,
			"count":2,
			"type":"VEC3"
		},
		{
			"bufferView":86,
			"componentType":5126,
			"count":40,
			"type":"VEC4"
		},
		{
			"bufferView":87,
			"componentType":5126,
			"count":2,
			"type":"VEC3"
		},
		{
			"bufferView":88,
			"componentType":5126,
			"count":2,
			"type":"VEC3"
		},
		{
			"bufferView":89,
			"componentType":5126,
			"count":2,
			"type":"VEC4"
		},
		{
			"bufferView":90,
			"componentType":5126,
			"count":2,
			"type":"VEC3"
		},
		{
			"bufferView":91,
			"componentType":5126,
			"count":2,
			"type":"VEC4"
		},
		{
			"bufferView":92,
			"componentType":5126,
			"count":2,
			"type":"VEC3"
		},
		{
			"bufferView":93,
			"componentType":5126,
			"count":40,
			"type":"VEC4"
		},
		{
			"bufferView":94,
			"componentType":5126,
			"count":2,
			"type":"VEC3"
		},
		{
			"bufferView":95,
			"componentType":5126,
			"count":2,
			"type":"VEC3"
		},
		{
			"bufferView":96,
			"componentType":5126,
			"count":40,
			"type":"VEC4"
		},
		{
			"bufferView":97,
			"componentType":5126,
			"count":2,
			"type":"VEC3"
		},
		{
			"bufferView":98,
			"componentType":5126,
			"count":2,
			"type":"VEC3"
		},
		{
			"bufferView":99,
			"componentType":5126,
			"count":40,
			"type":"VEC4"
		},
		{
			"bufferView":100,
			"componentType":5126,
			"count":2,
			"type":"VEC3"
		},
		{
			"bufferView":101,
			"componentType":5126,
			"count":2,
			"type":"VEC3"
		},
		{
			"bufferView":102,
			"componentType":5126,
			"count":40,
			"type":"VEC4"
		},
		{
			"bufferView":103,
			"componentType":5126,
			"count":2,
			"type":"VEC3"
		},
		{
			"bufferView":104,
			"componentType":5126,
			"count":2,
			"type":"VEC3"
		},
		{
			"bufferView":105,
			"componentType":5126,
			"count":40,
			"type":"VEC4"
		},
		{
			"bufferView":106,
			"componentType":5126,
			"count":2,
			"type":"VEC3"
		},
		{
			"bufferView":107,
			"componentType":5126,
			"count":2,
			"type":"VEC3"
		},
		{
			"bufferView":108,
			"componentType":5126,
			"count":40,
			"type":"VEC4"
		},
		{
			"bufferView":109,
			"componentType":5126,
			"count":2,
			"type":"VEC3"
		},
		{
			"bufferView":110,
			"componentType":5126,
			"count":2,
			"type":"VEC3"
		},
		{
			"bufferView":111,
			"componentType":5126,
			"count":2,
			"type":"VEC4"
		},
		{
			"bufferView":112,
			"componentType":5126,
			"count":2,
			"type":"VEC3"
		},
		{
			"bufferView":113,
			"componentType":5126,
			"count":2,
			"type":"VEC3"
		},
		{
			"bufferView":114,
			"componentType":5126,
			"count":2,
			"type":"VEC4"
		},
		{
			"bufferView":115,
			"componentType":5126,
			"count":2,
			"type":"VEC3"
		},
		{
			"bufferView":116,
			"componentType":5126,
			"count":2,
			"type":"VEC4"
		},
		{
			"bufferView":117,
			"componentType":5126,
			"count":2,
			"type":"VEC3"
		},
		{
			"bufferView":118,
			"componentType":5126,
			"count":2,
			"type":"VEC3"
		},
		{
			"bufferView":119,
			"componentType":5126,
			"count":22,
			"type":"MAT4"
		}
	],
	"bufferViews":[
		{
			"buffer":0,
			"byteLength":4,
			"byteOffset":0
		},
		{
			"buffer":0,
			"byteLength":12,
			"byteOffset":4
		},
		{
			"buffer":0,
			"byteLength":16,
			"byteOffset":16
		},
		{
			"buffer":0,
			"byteLength":12,
			"byteOffset":32
		},
		{
			"buffer":0,
			"byteLength":12,
			"byteOffset":44
		},
		{
			"buffer":0,
			"byteLength":16,
			"byteOffset":56
		},
		{
			"buffer":0,
			"byteLength":12,
			"byteOffset":72
		},
		{
			"buffer":0,
			"byteLength":16,
			"byteOffset":84
		},
		{
			"buffer":0,
			"byteLength":12,
			"byteOffset":100
		},
		{
			"buffer":0,
			"byteLength":12,
			"byteOffset":112
		},
		{
			"buffer":0,
			"byteLength":16,
			"byteOffset":124
		},
		{
			"buffer":0,
			"byteLength":12,
			"byteOffset":140
		},
		{
			"buffer":0,
			"byteLength":16,
			"byteOffset":152
		},
		{
			"buffer":0,
			"byteLength":12,
			"byteOffset":168
		},
		{
			"buffer":0,
			"byteLength":12,
			"byteOffset":180
		},
		{
			"buffer":0,
			"byteLength":16,
			"byteOffset":192
		},
		{
			"buffer":0,
			"byteLength":12,
			"byteOffset":208
		},
		{
			"buffer":0,
			"byteLength":12,
			"byteOffset":220
		},
		{
			"buffer":0,
			"byteLength":16,
			"byteOffset":232
		},
		{
			"buffer":0,
			"byteLength":12,
			"byteOffset":248
		},
		{
			"buffer":0,
			"byteLength":12,
			"byteOffset":260
		},
		{
			"buffer":0,
			"byteLength":16,
			"byteOffset":272
		},
		{
			"buffer":0,
			"byteLength":12,
			"byteOffset":288
		},
		{
			"buffer":0,
			"byteLength":12,
			"byteOffset":300
		},
		{
			"buffer":0,
			"byteLength":16,
			"byteOffset":312
		},
		{
			"buffer":0,
			"byteLength":12,
			"byteOffset":328
		},
		{
			"buffer":0,
			"byteLength":12,
			"byteOffset":340
		},
		{
			"buffer":0,
			"byteLength":16,
			"byteOffset":352
		},
		{
			"buffer":0,
			"byteLength":12,
			"byteOffset":368
		},
		{
			"buffer":0,
			"byteLength":12,
			"byteOffset":380
		},
		{
			"buffer":0,
			"byteLength":16,
			"byteOffset":392
		},
		{
			"buffer":0,
			"byteLength":12,
			"byteOffset":408
		},
		{
			"buffer":0,
			"byteLength":16,
			"byteOffset":420
		},
		{
			"buffer":0,
			"byteLength":12,
			"byteOffset":436
		},
		{
			"buffer":0,
			"byteLength":16,
			"byteOffset":448
		},
		{
			"buffer":0,
			"byteLength":12,
			"byteOffset":464
		},
		{
			"buffer":0,
			"byteLength":12,
			"byteOffset":476
		},
		{
			"buffer":0,
			"byteLength":16,
			"byteOffset":488
		},
		{
			"buffer":0,
			"byteLength":12,
			"byteOffset":504
		},
		{
			"buffer":0,
			"byteLength":12,
			"byteOffset":516
		},
		{
			"buffer":0,
			"byteLength":16,
			"byteOffset":528
		},
		{
			"buffer":0,
			"byteLength":12,
			"byteOffset":544
		},
		{
			"buffer":0,
			"byteLength":12,
			"byteOffset":556
		},
		{
			"buffer":0,
			"byteLength":16,
			"byteOffset":568
		},
		{
			"buffer":0,
			"byteLength":12,
			"byteOffset":584
		},
		{
			"buffer":0,
			"byteLength":12,
			"byteOffset":596
		},
		{
			"buffer":0,
			"byteLength":16,
			"byteOffset":608
		},
		{
			"buffer":0,
			"byteLength":12,
			"byteOffset":624
		},
		{
			"buffer":0,
			"byteLength":12,
			"byteOffset":636
		},
		{
			"buffer":0,
			"byteLength":16,
			"byteOffset":648
		},
		{
			"buffer":0,
			"byteLength":12,
			"byteOffset":664
		},
		{
			"buffer":0,
			"byteLength":12,
			"byteOffset":676
		},
		{
			"buffer":0,
			"byteLength":16,
			"byteOffset":688
		},
		{
			"buffer":0,
			"byteLength":12,
			"byteOffset":704
		},
		{
			"buffer":0,
			"byteLength":12,
			"byteOffset":716
		},
		{
			"buffer":0,
			"byteLength":16,
			"byteOffset":728
		},
		{
			"buffer":0,
			"byteLength":12,
			"byteOffset":744
		},
		{
			"buffer":0,
			"byteLength":12,
			"byteOffset":756
		},
		{
			"buffer":0,
			"byteLength":160,
			"byteOffset":768
		},
		{
			"buffer":0,
			"byteLength":480,
			"byteOffset":928
		},
		{
			"buffer":0,
			"byteLength":8,
			"byteOffset":1408
		},
		{
			"buffer":0,
			"byteLength":32,
			"byteOffset":1416
		},
		{
			"buffer":0,
			"byteLength":24,
			"byteOffset":1448
		},
		{
			"buffer":0,
			"byteLength":24,
			"byteOffset":1472
		},
		{
			"buffer":0,
			"byteLength":32,
			"byteOffset":1496
		},
		{
			"buffer":0,
			"byteLength":24,
			"byteOffset":1528
		},
		{
			"buffer":0,
			"byteLength":32,
			"byteOffset":1552
		},
		{
			"buffer":0,
			"byteLength":24,
			"byteOffset":1584
		},
		{
			"buffer":0,
			"byteLength":24,
			"byteOffset":1608
		},
		{
			"buffer":0,
			"byteLength":32,
			"byteOffset":1632
		},
		{
			"buffer":0,
			"byteLength":24,
			"byteOffset":1664
		},
		{
			"buffer":0,
			"byteLength":640,
			"byteOffset":1688
		},
		{
			"buffer":0,
			"byteLength":24,
			"byteOffset":2328
		},
		{
			"buffer":0,
			"byteLength":24,
			"byteOffset":2352
		},
		{
			"buffer":0,
			"byteLength":32,
			"byteOffset":2376
		},
		{
			"buffer":0,
			"byteLength":24,
			"byteOffset":2408
		},
		{
			"buffer":0,
			"byteLength":24,
			"byteOffset":2432
		},
		{
			"buffer":0,
			"byteLength":32,
			"byteOffset":2456
		},
		{
			"buffer":0,
			"byteLength":24,
			"byteOffset":2488
		},
		{
			"buffer":0,
			"byteLength":24,
			"byteOffset":2512
		},
		{
			"buffer":0,
			"byteLength":32,
			"byteOffset":2536
		},
		{
			"buffer":0,
			"byteLength":24,
			"byteOffset":2568
		},
		{
			"buffer":0,
			"byteLength":24,
			"byteOffset":2592
		},
		{
			"buffer":0,
			"byteLength":640,
			"byteOffset":2616
		},
		{
			"buffer":0,
			"byteLength":24,
			"byteOffset":3256
		},
		{
			"buffer":0,
			"byteLength":24,
			"byteOffset":3280
		},
		{
			"buffer":0,
			"byteLength":640,
			"byteOffset":3304
		},
		{
			"buffer":0,
			"byteLength":24,
			"byteOffset":3944
		},
		{
			"buffer":0,
			"byteLength":24,
			"byteOffset":3968
		},
		{
			"buffer":0,
			"byteLength":32,
			"byteOffset":3992
		},
		{
			"buffer":0,
			"byteLength":24,
			"byteOffset":4024
		},
		{
			"buffer":0,
			"byteLength":32,
			"byteOffset":4048
		},
		{
			"buffer":0,
			"byteLength":24,
			"byteOffset":4080
		},
		{
			"buffer":0,
			"byteLength":640,
			"byteOffset":4104
		},
		{
			"buffer":0,
			"byteLength":24,
			"byteOffset":4744
		},
		{
			"buffer":0,
			"byteLength":24,
			"byteOffset":4768
		},
		{
			"buffer":0,
			"byteLength":640,
			"byteOffset":4792
		},
		{
			"buffer":0,
			"byteLength":24,
			"byteOffset":5432
		},
		{
			"buffer":0,
			"byteLength":24,
			"byteOffset":5456
		},
		{
			"buffer":0,
			"byteLength":640,
			"byteOffset":5480
		},
		{
			"buffer":0,
			"byteLength":24,
			"byteOffset":6120
		},
		{
			"buffer":0,
			"byteLength":24,
			"byteOffset":6144
		},
		{
			"buffer":0,
			"byteLength":640,
			"byteOffset":6168
		},
		{
			"buffer":0,
			"byteLength":24,
			"byteOffset":6808
		},
		{
			"buffer":0,
			"byteLength":24,
			"byteOffset":6832
		},
		{
			"buffer":0,
			"byteLength":640,
			"byteOffset":6856
		},
		{
			"buffer":0,
			"byteLength":24,
			"byteOffset":7496
		},
		{
			"buffer":0,
			"byteLength":24,
			"byteOffset":7520
		},
		{
			"buffer":0,
			"byteLength":640,
			"byteOffset":7544
		},
		{
			"buffer":0,
			"byteLength":24,
			"byteOffset":8184
		},
		{
			"buffer":0,
			"byteLength":24,
			"byteOffset":8208
		},
		{
			"buffer":0,
			"byteLength":32,
			"byteOffset":8232
		},
		{
			"buffer":0,
			"byteLength":24,
			"byteOffset":8264
		},
		{
			"buffer":0,
			"byteLength":24,
			"byteOffset":8288
		},
		{
			"buffer":0,
			"byteLength":32,
			"byteOffset":8312
		},
		{
			"buffer":0,
			"byteLength":24,
			"byteOffset":8344
		},
		{
			"buffer":0,
			"byteLength":32,
			"byteOffset":8368
		},
		{
			"buffer":0,
			"byteLength":24,
			"byteOffset":8400
		},
		{
			"buffer":0,
			"byteLength":24,
			"byteOffset":8424
		},
		{
			"buffer":0,
			"byteLength":1408,
			"byteOffset":8448
		}
	],
	"buffers":[
		{
			"byteLength":9856,
			"uri":"Dummy.bin"
		}
	]
}
