{
	"asset":{
		"generator":"Khronos glTF Blender I/O v4.5.49",
		"version":"2.0"
	},
	"scene":0,
	"scenes":[
		{
			"name":"Scene",
			"nodes":[
				9
			]
		}
	],
	"nodes":[
		{
			"name":"TopBone",
			"rotation":[
				1.9367126569136417e-08,
				8.823756303399932e-08,
				-0.21438519656658173,
				0.9767491817474365
			],
			"translation":[
				0,
				2.118612051010132,
				0
			]
		},
		{
			"children":[
				0
			],
			"name":"MiddleBone",
			"translation":[
				0,
				1,
				0
			]
		},
		{
			"name":"Right1",
			"rotation":[
				3.0834326025797054e-07,
				-3.1787426024720844e-08,
				-0.7096042633056641,
				0.70460045337677
			],
			"scale":[
				0.9999998807907104,
				0.9999998807907104,
				1
			],
			"translation":[
				-1.4585106100639678e-07,
				3.025192975997925,
				1.3346506122502433e-09
			]
		},
		{
			"children":[
				2
			],
			"name":"Right0",
			"rotation":[
				1.689781612412844e-07,
				1.7017821107856435e-07,
				-0.70460045337677,
				0.7096042633056641
			],
			"translation":[
				1.0996794700622559,
				2.1797592639923096,
				0.020594418048858643
			]
		},
		{
			"name":"Left3",
			"rotation":[
				-0.004153141751885414,
				1.0272352568563292e-07,
				0.707171618938446,
				0.7070297598838806
			],
			"translation":[
				3.944442141801119e-07,
				1.9479961395263672,
				-8.381903171539307e-09
			]
		},
		{
			"children":[
				4
			],
			"name":"Left2",
			"rotation":[
				0.045170072466135025,
				0.03498364984989166,
				-0.8165498375892639,
				0.5744407773017883
			],
			"scale":[
				1.0000001192092896,
				1,
				0.9999999403953552
			],
			"translation":[
				-1.019798219203949e-07,
				1.3719725608825684,
				2.60770320892334e-08
			]
		},
		{
			"children":[
				5
			],
			"name":"Left1",
			"rotation":[
				-0.03832850605249405,
				-0.03960943594574928,
				0.8163343667984009,
				0.5749436616897583
			],
			"translation":[
				-1.0527523756027222,
				2.032729148864746,
				-0.02139134705066681
			]
		},
		{
			"children":[
				1,
				3,
				6
			],
			"name":"BottomBone"
		},
		{
			"mesh":0,
			"name":"Cube",
			"skin":0
		},
		{
			"children":[
				8,
				7
			],
			"name":"Armature"
		}
	],
	"meshes":[
		{
			"name":"Cube",
			"primitives":[
				{
					"attributes":{
						"POSITION":0,
						"NORMAL":1,
						"TEXCOORD_0":2,
						"JOINTS_0":3,
						"WEIGHTS_0":4
					},
					"indices":5
				}
			]
		}
	],
	"skins":[
		{
			"inverseBindMatrices":6,
			"joints":[
				7,
				1,
				0,
				3,
				2,
				6,
				5,
				4
			],
			"name":"Armature"
		}
	],
	"accessors":[
		{
			"bufferView":0,
			"componentType":5126,
			"count":260,
			"max":[
				4.335450172424316,
				6.47202205657959,
				1
			],
			"min":[
				-3.41271710395813,
				0,
				-1
			],
			"type":"VEC3"
		},
		{
			"bufferView":1,
			"componentType":5126,
			"count":260,
			"type":"VEC3"
		},
		{
			"bufferView":2,
			"componentType":5126,
			"count":260,
			"type":"VEC2"
		},
		{
			"bufferView":3,
			"componentType":5121,
			"count":260,
			"type":"VEC4"
		},
		{
			"bufferView":4,
			"componentType":5126,
			"count":260,
			"type":"VEC4"
		},
		{
			"bufferView":5,
			"componentType":5123,
			"count":570,
			"type":"SCALAR"
		},
		{
			"bufferView":6,
			"componentType":5126,
			"count":8,
			"type":"MAT4"
		}
	],
	"bufferViews":[
		{
			"buffer":0,
			"byteLength":3120,
			"byteOffset":0,
			"target":34962
		},
		{
			"buffer":0,
			"byteLength":3120,
			"byteOffset":3120,
			"target":34962
		},
		{
			"buffer":0,
			"byteLength":2080,
			"byteOffset":6240,
			"target":34962
		},
		{
			"buffer":0,
			"byteLength":1040,
			"byteOffset":8320,
			"target":34962
		},
		{
			"buffer":0,
			"byteLength":4160,
			"byteOffset":9360,
			"target":34962
		},
		{
			"buffer":0,
			"byteLength":1140,
			"byteOffset":13520,
			"target":34963
		},
		{
			"buffer":0,
			"byteLength":512,
			"byteOffset":14660
		}
	],
	"buffers":[
		{
			"byteLength":15172,
			"uri":"SimpleSkelet.bin"
		}
	]
}
